<mxfile host="app.diagrams.net" modified="2023-11-24T15:54:31.363Z" agent="Mozilla/5.0 (Macintosh; Intel Mac OS X 10_15_7) AppleWebKit/605.1.15 (KHTML, like Gecko) Version/16.5 Safari/605.1.15" etag="U_mKX-GKh032WbVl6MSe" version="22.1.3" type="github">
  <diagram id="WKY5OjDPw6Oxltosxbnt" name="Page-1">
    <mxGraphModel dx="2057" dy="1947" grid="1" gridSize="10" guides="1" tooltips="1" connect="1" arrows="1" fold="1" page="1" pageScale="1" pageWidth="850" pageHeight="1100" math="0" shadow="0">
      <root>
        <mxCell id="0" />
        <mxCell id="1" parent="0" />
        <mxCell id="cOA8pEIspgwsPlg7-5SU-42" style="edgeStyle=orthogonalEdgeStyle;rounded=0;orthogonalLoop=1;jettySize=auto;html=1;entryX=0.5;entryY=0;entryDx=0;entryDy=0;" parent="1" source="cOA8pEIspgwsPlg7-5SU-3" target="cOA8pEIspgwsPlg7-5SU-5" edge="1">
          <mxGeometry relative="1" as="geometry" />
        </mxCell>
        <mxCell id="cOA8pEIspgwsPlg7-5SU-52" style="edgeStyle=orthogonalEdgeStyle;rounded=0;orthogonalLoop=1;jettySize=auto;html=1;" parent="1" source="cOA8pEIspgwsPlg7-5SU-3" target="cOA8pEIspgwsPlg7-5SU-7" edge="1">
          <mxGeometry relative="1" as="geometry">
            <Array as="points">
              <mxPoint x="280" y="280" />
              <mxPoint x="460" y="280" />
            </Array>
          </mxGeometry>
        </mxCell>
        <mxCell id="buJ9CacG_YuytnTNxGgd-8" style="edgeStyle=orthogonalEdgeStyle;rounded=0;orthogonalLoop=1;jettySize=auto;html=1;entryX=0.5;entryY=1;entryDx=0;entryDy=0;" parent="1" source="cOA8pEIspgwsPlg7-5SU-3" target="cOA8pEIspgwsPlg7-5SU-6" edge="1">
          <mxGeometry relative="1" as="geometry" />
        </mxCell>
        <mxCell id="cOA8pEIspgwsPlg7-5SU-3" value="Product E." style="rounded=0;whiteSpace=wrap;html=1;fillColor=#dae8fc;strokeColor=#6c8ebf;" parent="1" vertex="1">
          <mxGeometry x="200" y="200" width="160" height="40" as="geometry" />
        </mxCell>
        <mxCell id="cOA8pEIspgwsPlg7-5SU-55" style="edgeStyle=orthogonalEdgeStyle;rounded=0;orthogonalLoop=1;jettySize=auto;html=1;" parent="1" source="cOA8pEIspgwsPlg7-5SU-4" target="cOA8pEIspgwsPlg7-5SU-8" edge="1">
          <mxGeometry relative="1" as="geometry" />
        </mxCell>
        <mxCell id="gjqITfuBYD3FeMsKbYDt-17" style="edgeStyle=orthogonalEdgeStyle;rounded=0;orthogonalLoop=1;jettySize=auto;html=1;entryX=0.5;entryY=1;entryDx=0;entryDy=0;" edge="1" parent="1" source="cOA8pEIspgwsPlg7-5SU-4" target="cOA8pEIspgwsPlg7-5SU-53">
          <mxGeometry relative="1" as="geometry" />
        </mxCell>
        <mxCell id="cOA8pEIspgwsPlg7-5SU-4" value="APT" style="rounded=0;whiteSpace=wrap;html=1;fillColor=#d5e8d4;strokeColor=#82b366;" parent="1" vertex="1">
          <mxGeometry x="1370" y="335" width="160" height="40" as="geometry" />
        </mxCell>
        <mxCell id="cOA8pEIspgwsPlg7-5SU-11" style="edgeStyle=orthogonalEdgeStyle;rounded=0;orthogonalLoop=1;jettySize=auto;html=1;" parent="1" source="cOA8pEIspgwsPlg7-5SU-5" target="cOA8pEIspgwsPlg7-5SU-10" edge="1">
          <mxGeometry relative="1" as="geometry">
            <mxPoint x="140" y="460" as="sourcePoint" />
          </mxGeometry>
        </mxCell>
        <mxCell id="buJ9CacG_YuytnTNxGgd-16" style="edgeStyle=orthogonalEdgeStyle;rounded=0;orthogonalLoop=1;jettySize=auto;html=1;entryX=0;entryY=0.5;entryDx=0;entryDy=0;" parent="1" source="cOA8pEIspgwsPlg7-5SU-5" target="cOA8pEIspgwsPlg7-5SU-21" edge="1">
          <mxGeometry relative="1" as="geometry" />
        </mxCell>
        <mxCell id="buJ9CacG_YuytnTNxGgd-17" style="edgeStyle=orthogonalEdgeStyle;rounded=0;orthogonalLoop=1;jettySize=auto;html=1;" parent="1" source="cOA8pEIspgwsPlg7-5SU-5" target="cOA8pEIspgwsPlg7-5SU-40" edge="1">
          <mxGeometry relative="1" as="geometry" />
        </mxCell>
        <mxCell id="buJ9CacG_YuytnTNxGgd-18" style="edgeStyle=orthogonalEdgeStyle;rounded=0;orthogonalLoop=1;jettySize=auto;html=1;entryX=0.5;entryY=0;entryDx=0;entryDy=0;" parent="1" source="cOA8pEIspgwsPlg7-5SU-5" target="cOA8pEIspgwsPlg7-5SU-12" edge="1">
          <mxGeometry relative="1" as="geometry" />
        </mxCell>
        <mxCell id="cOA8pEIspgwsPlg7-5SU-5" value="Network" style="rounded=1;whiteSpace=wrap;html=1;fillColor=#d5e8d4;strokeColor=#82b366;" parent="1" vertex="1">
          <mxGeometry x="80" y="320" width="120" height="60" as="geometry" />
        </mxCell>
        <mxCell id="buJ9CacG_YuytnTNxGgd-10" style="edgeStyle=orthogonalEdgeStyle;rounded=0;orthogonalLoop=1;jettySize=auto;html=1;exitX=0.5;exitY=0;exitDx=0;exitDy=0;entryX=0.5;entryY=1;entryDx=0;entryDy=0;" parent="1" source="cOA8pEIspgwsPlg7-5SU-6" target="cOA8pEIspgwsPlg7-5SU-44" edge="1">
          <mxGeometry relative="1" as="geometry" />
        </mxCell>
        <mxCell id="buJ9CacG_YuytnTNxGgd-14" style="edgeStyle=orthogonalEdgeStyle;rounded=0;orthogonalLoop=1;jettySize=auto;html=1;entryX=0.5;entryY=1;entryDx=0;entryDy=0;" parent="1" source="cOA8pEIspgwsPlg7-5SU-6" target="buJ9CacG_YuytnTNxGgd-5" edge="1">
          <mxGeometry relative="1" as="geometry" />
        </mxCell>
        <mxCell id="buJ9CacG_YuytnTNxGgd-15" style="edgeStyle=orthogonalEdgeStyle;rounded=0;orthogonalLoop=1;jettySize=auto;html=1;entryX=0.5;entryY=1;entryDx=0;entryDy=0;" parent="1" source="cOA8pEIspgwsPlg7-5SU-6" target="buJ9CacG_YuytnTNxGgd-4" edge="1">
          <mxGeometry relative="1" as="geometry" />
        </mxCell>
        <mxCell id="cOA8pEIspgwsPlg7-5SU-6" value="Endpoint Security" style="rounded=1;whiteSpace=wrap;html=1;fillColor=#d5e8d4;strokeColor=#82b366;" parent="1" vertex="1">
          <mxGeometry x="220" y="80" width="120" height="60" as="geometry" />
        </mxCell>
        <mxCell id="cOA8pEIspgwsPlg7-5SU-58" style="edgeStyle=orthogonalEdgeStyle;rounded=0;orthogonalLoop=1;jettySize=auto;html=1;" parent="1" source="cOA8pEIspgwsPlg7-5SU-7" target="cOA8pEIspgwsPlg7-5SU-57" edge="1">
          <mxGeometry relative="1" as="geometry" />
        </mxCell>
        <mxCell id="cOA8pEIspgwsPlg7-5SU-62" style="edgeStyle=orthogonalEdgeStyle;rounded=0;orthogonalLoop=1;jettySize=auto;html=1;entryX=0.5;entryY=0;entryDx=0;entryDy=0;" parent="1" source="cOA8pEIspgwsPlg7-5SU-7" target="cOA8pEIspgwsPlg7-5SU-59" edge="1">
          <mxGeometry relative="1" as="geometry">
            <Array as="points">
              <mxPoint x="460" y="390" />
              <mxPoint x="590" y="390" />
            </Array>
          </mxGeometry>
        </mxCell>
        <mxCell id="cOA8pEIspgwsPlg7-5SU-66" style="edgeStyle=orthogonalEdgeStyle;rounded=0;orthogonalLoop=1;jettySize=auto;html=1;" parent="1" source="cOA8pEIspgwsPlg7-5SU-7" target="cOA8pEIspgwsPlg7-5SU-60" edge="1">
          <mxGeometry relative="1" as="geometry">
            <Array as="points">
              <mxPoint x="460" y="390" />
              <mxPoint x="730" y="390" />
            </Array>
          </mxGeometry>
        </mxCell>
        <mxCell id="cOA8pEIspgwsPlg7-5SU-72" style="edgeStyle=orthogonalEdgeStyle;rounded=0;orthogonalLoop=1;jettySize=auto;html=1;" parent="1" source="cOA8pEIspgwsPlg7-5SU-7" target="cOA8pEIspgwsPlg7-5SU-61" edge="1">
          <mxGeometry relative="1" as="geometry">
            <Array as="points">
              <mxPoint x="460" y="390" />
              <mxPoint x="880" y="390" />
            </Array>
          </mxGeometry>
        </mxCell>
        <mxCell id="cOA8pEIspgwsPlg7-5SU-7" value="Email GateWay" style="rounded=1;whiteSpace=wrap;html=1;fillColor=#d5e8d4;strokeColor=#82b366;" parent="1" vertex="1">
          <mxGeometry x="400" y="320" width="120" height="60" as="geometry" />
        </mxCell>
        <mxCell id="gjqITfuBYD3FeMsKbYDt-23" style="edgeStyle=orthogonalEdgeStyle;rounded=0;orthogonalLoop=1;jettySize=auto;html=1;entryX=0.5;entryY=0;entryDx=0;entryDy=0;" edge="1" parent="1" source="cOA8pEIspgwsPlg7-5SU-8" target="gjqITfuBYD3FeMsKbYDt-18">
          <mxGeometry relative="1" as="geometry" />
        </mxCell>
        <mxCell id="gjqITfuBYD3FeMsKbYDt-28" style="edgeStyle=orthogonalEdgeStyle;rounded=0;orthogonalLoop=1;jettySize=auto;html=1;" edge="1" parent="1" source="cOA8pEIspgwsPlg7-5SU-8" target="gjqITfuBYD3FeMsKbYDt-27">
          <mxGeometry relative="1" as="geometry" />
        </mxCell>
        <mxCell id="cOA8pEIspgwsPlg7-5SU-8" value="Active Directory" style="rounded=1;whiteSpace=wrap;html=1;fillColor=#e1d5e7;strokeColor=#9673a6;" parent="1" vertex="1">
          <mxGeometry x="1390" y="455" width="120" height="60" as="geometry" />
        </mxCell>
        <mxCell id="cOA8pEIspgwsPlg7-5SU-15" style="edgeStyle=orthogonalEdgeStyle;rounded=0;orthogonalLoop=1;jettySize=auto;html=1;" parent="1" source="cOA8pEIspgwsPlg7-5SU-10" target="cOA8pEIspgwsPlg7-5SU-14" edge="1">
          <mxGeometry relative="1" as="geometry" />
        </mxCell>
        <mxCell id="cOA8pEIspgwsPlg7-5SU-18" style="edgeStyle=orthogonalEdgeStyle;rounded=0;orthogonalLoop=1;jettySize=auto;html=1;exitX=0.5;exitY=1;exitDx=0;exitDy=0;entryX=0.5;entryY=0;entryDx=0;entryDy=0;" parent="1" source="cOA8pEIspgwsPlg7-5SU-10" target="cOA8pEIspgwsPlg7-5SU-16" edge="1">
          <mxGeometry relative="1" as="geometry">
            <Array as="points">
              <mxPoint x="140" y="570" />
              <mxPoint x="270" y="570" />
            </Array>
          </mxGeometry>
        </mxCell>
        <mxCell id="buJ9CacG_YuytnTNxGgd-25" style="edgeStyle=orthogonalEdgeStyle;rounded=0;orthogonalLoop=1;jettySize=auto;html=1;entryX=0.5;entryY=0;entryDx=0;entryDy=0;" parent="1" source="cOA8pEIspgwsPlg7-5SU-10" target="cOA8pEIspgwsPlg7-5SU-17" edge="1">
          <mxGeometry relative="1" as="geometry">
            <Array as="points">
              <mxPoint x="140" y="570" />
              <mxPoint x="10" y="570" />
            </Array>
          </mxGeometry>
        </mxCell>
        <mxCell id="cOA8pEIspgwsPlg7-5SU-10" value="WAF / CDN" style="rounded=1;whiteSpace=wrap;html=1;fillColor=#e1d5e7;strokeColor=#9673a6;" parent="1" vertex="1">
          <mxGeometry x="80" y="500" width="120" height="60" as="geometry" />
        </mxCell>
        <mxCell id="buJ9CacG_YuytnTNxGgd-1" style="edgeStyle=orthogonalEdgeStyle;rounded=0;orthogonalLoop=1;jettySize=auto;html=1;" parent="1" source="cOA8pEIspgwsPlg7-5SU-12" edge="1">
          <mxGeometry relative="1" as="geometry">
            <mxPoint x="-190" y="650" as="targetPoint" />
          </mxGeometry>
        </mxCell>
        <mxCell id="cOA8pEIspgwsPlg7-5SU-12" value="Segmentation" style="rounded=1;whiteSpace=wrap;html=1;" parent="1" vertex="1">
          <mxGeometry x="-250" y="500" width="120" height="60" as="geometry" />
        </mxCell>
        <mxCell id="cOA8pEIspgwsPlg7-5SU-14" value="Payloads" style="rounded=1;whiteSpace=wrap;html=1;" parent="1" vertex="1">
          <mxGeometry x="80" y="590" width="120" height="30" as="geometry" />
        </mxCell>
        <mxCell id="cOA8pEIspgwsPlg7-5SU-16" value="?" style="rounded=1;whiteSpace=wrap;html=1;" parent="1" vertex="1">
          <mxGeometry x="210" y="590" width="120" height="30" as="geometry" />
        </mxCell>
        <mxCell id="cOA8pEIspgwsPlg7-5SU-17" value="Rate Limiting" style="rounded=1;whiteSpace=wrap;html=1;" parent="1" vertex="1">
          <mxGeometry x="-50" y="590" width="120" height="30" as="geometry" />
        </mxCell>
        <mxCell id="cOA8pEIspgwsPlg7-5SU-24" style="edgeStyle=orthogonalEdgeStyle;rounded=0;orthogonalLoop=1;jettySize=auto;html=1;" parent="1" source="cOA8pEIspgwsPlg7-5SU-21" target="cOA8pEIspgwsPlg7-5SU-23" edge="1">
          <mxGeometry relative="1" as="geometry" />
        </mxCell>
        <mxCell id="cOA8pEIspgwsPlg7-5SU-26" style="edgeStyle=orthogonalEdgeStyle;rounded=0;orthogonalLoop=1;jettySize=auto;html=1;entryX=0.5;entryY=0;entryDx=0;entryDy=0;" parent="1" source="cOA8pEIspgwsPlg7-5SU-21" target="cOA8pEIspgwsPlg7-5SU-25" edge="1">
          <mxGeometry relative="1" as="geometry">
            <Array as="points">
              <mxPoint x="440" y="620" />
              <mxPoint x="600" y="620" />
            </Array>
          </mxGeometry>
        </mxCell>
        <mxCell id="cOA8pEIspgwsPlg7-5SU-21" value="DLP" style="rounded=1;whiteSpace=wrap;html=1;fillColor=#e1d5e7;strokeColor=#9673a6;" parent="1" vertex="1">
          <mxGeometry x="380" y="500" width="120" height="60" as="geometry" />
        </mxCell>
        <mxCell id="cOA8pEIspgwsPlg7-5SU-28" value="" style="edgeStyle=orthogonalEdgeStyle;rounded=0;orthogonalLoop=1;jettySize=auto;html=1;" parent="1" source="cOA8pEIspgwsPlg7-5SU-23" target="cOA8pEIspgwsPlg7-5SU-27" edge="1">
          <mxGeometry relative="1" as="geometry" />
        </mxCell>
        <mxCell id="buJ9CacG_YuytnTNxGgd-32" style="edgeStyle=orthogonalEdgeStyle;rounded=0;orthogonalLoop=1;jettySize=auto;html=1;entryX=0.5;entryY=0;entryDx=0;entryDy=0;" parent="1" source="cOA8pEIspgwsPlg7-5SU-23" target="buJ9CacG_YuytnTNxGgd-31" edge="1">
          <mxGeometry relative="1" as="geometry">
            <Array as="points">
              <mxPoint x="440" y="750" />
              <mxPoint x="50" y="750" />
            </Array>
          </mxGeometry>
        </mxCell>
        <mxCell id="cOA8pEIspgwsPlg7-5SU-23" value="Infiltration" style="rounded=1;whiteSpace=wrap;html=1;" parent="1" vertex="1">
          <mxGeometry x="380" y="660" width="120" height="70" as="geometry" />
        </mxCell>
        <mxCell id="cOA8pEIspgwsPlg7-5SU-36" value="" style="edgeStyle=orthogonalEdgeStyle;rounded=0;orthogonalLoop=1;jettySize=auto;html=1;entryX=0.5;entryY=0;entryDx=0;entryDy=0;" parent="1" source="cOA8pEIspgwsPlg7-5SU-25" target="cOA8pEIspgwsPlg7-5SU-27" edge="1">
          <mxGeometry relative="1" as="geometry">
            <mxPoint x="600" y="815" as="targetPoint" />
            <Array as="points">
              <mxPoint x="600" y="750" />
              <mxPoint x="440" y="750" />
            </Array>
          </mxGeometry>
        </mxCell>
        <mxCell id="cOA8pEIspgwsPlg7-5SU-38" style="edgeStyle=orthogonalEdgeStyle;rounded=0;orthogonalLoop=1;jettySize=auto;html=1;" parent="1" source="cOA8pEIspgwsPlg7-5SU-25" target="cOA8pEIspgwsPlg7-5SU-29" edge="1">
          <mxGeometry relative="1" as="geometry">
            <Array as="points">
              <mxPoint x="600" y="750" />
              <mxPoint x="310" y="750" />
            </Array>
          </mxGeometry>
        </mxCell>
        <mxCell id="cOA8pEIspgwsPlg7-5SU-39" style="edgeStyle=orthogonalEdgeStyle;rounded=0;orthogonalLoop=1;jettySize=auto;html=1;entryX=0.5;entryY=0;entryDx=0;entryDy=0;" parent="1" source="cOA8pEIspgwsPlg7-5SU-25" target="cOA8pEIspgwsPlg7-5SU-30" edge="1">
          <mxGeometry relative="1" as="geometry">
            <Array as="points">
              <mxPoint x="600" y="750" />
              <mxPoint x="180" y="750" />
            </Array>
          </mxGeometry>
        </mxCell>
        <mxCell id="cOA8pEIspgwsPlg7-5SU-25" value="Exfiltration" style="rounded=1;whiteSpace=wrap;html=1;" parent="1" vertex="1">
          <mxGeometry x="540" y="660" width="120" height="70" as="geometry" />
        </mxCell>
        <mxCell id="cOA8pEIspgwsPlg7-5SU-34" style="edgeStyle=orthogonalEdgeStyle;rounded=0;orthogonalLoop=1;jettySize=auto;html=1;" parent="1" source="cOA8pEIspgwsPlg7-5SU-27" target="cOA8pEIspgwsPlg7-5SU-33" edge="1">
          <mxGeometry relative="1" as="geometry" />
        </mxCell>
        <mxCell id="cOA8pEIspgwsPlg7-5SU-27" value="DNS" style="rounded=1;whiteSpace=wrap;html=1;" parent="1" vertex="1">
          <mxGeometry x="380" y="770" width="120" height="30" as="geometry" />
        </mxCell>
        <mxCell id="cOA8pEIspgwsPlg7-5SU-32" style="edgeStyle=orthogonalEdgeStyle;rounded=0;orthogonalLoop=1;jettySize=auto;html=1;" parent="1" source="cOA8pEIspgwsPlg7-5SU-29" target="cOA8pEIspgwsPlg7-5SU-31" edge="1">
          <mxGeometry relative="1" as="geometry" />
        </mxCell>
        <mxCell id="cOA8pEIspgwsPlg7-5SU-29" value="HTTP/S" style="rounded=1;whiteSpace=wrap;html=1;" parent="1" vertex="1">
          <mxGeometry x="250" y="770" width="120" height="30" as="geometry" />
        </mxCell>
        <mxCell id="cOA8pEIspgwsPlg7-5SU-30" value="SSH" style="rounded=1;whiteSpace=wrap;html=1;" parent="1" vertex="1">
          <mxGeometry x="120" y="770" width="120" height="30" as="geometry" />
        </mxCell>
        <mxCell id="cOA8pEIspgwsPlg7-5SU-31" value="IP List" style="rounded=1;whiteSpace=wrap;html=1;" parent="1" vertex="1">
          <mxGeometry x="250" y="835" width="120" height="30" as="geometry" />
        </mxCell>
        <mxCell id="cOA8pEIspgwsPlg7-5SU-33" value="?" style="rounded=1;whiteSpace=wrap;html=1;" parent="1" vertex="1">
          <mxGeometry x="380" y="835" width="120" height="30" as="geometry" />
        </mxCell>
        <mxCell id="buJ9CacG_YuytnTNxGgd-29" style="edgeStyle=orthogonalEdgeStyle;rounded=0;orthogonalLoop=1;jettySize=auto;html=1;entryX=0.5;entryY=0;entryDx=0;entryDy=0;" parent="1" source="cOA8pEIspgwsPlg7-5SU-40" target="buJ9CacG_YuytnTNxGgd-27" edge="1">
          <mxGeometry relative="1" as="geometry" />
        </mxCell>
        <mxCell id="cOA8pEIspgwsPlg7-5SU-40" value="Proxy / FireWall egress" style="rounded=1;whiteSpace=wrap;html=1;fillColor=#e1d5e7;strokeColor=#9673a6;" parent="1" vertex="1">
          <mxGeometry x="-550" y="500" width="120" height="60" as="geometry" />
        </mxCell>
        <mxCell id="buJ9CacG_YuytnTNxGgd-11" style="edgeStyle=orthogonalEdgeStyle;rounded=0;orthogonalLoop=1;jettySize=auto;html=1;" parent="1" source="cOA8pEIspgwsPlg7-5SU-44" target="cOA8pEIspgwsPlg7-5SU-48" edge="1">
          <mxGeometry relative="1" as="geometry" />
        </mxCell>
        <mxCell id="buJ9CacG_YuytnTNxGgd-12" style="edgeStyle=orthogonalEdgeStyle;rounded=0;orthogonalLoop=1;jettySize=auto;html=1;entryX=0.5;entryY=1;entryDx=0;entryDy=0;" parent="1" source="cOA8pEIspgwsPlg7-5SU-44" target="cOA8pEIspgwsPlg7-5SU-49" edge="1">
          <mxGeometry relative="1" as="geometry">
            <Array as="points">
              <mxPoint x="280" y="-40" />
              <mxPoint x="410" y="-40" />
            </Array>
          </mxGeometry>
        </mxCell>
        <mxCell id="buJ9CacG_YuytnTNxGgd-13" style="edgeStyle=orthogonalEdgeStyle;rounded=0;orthogonalLoop=1;jettySize=auto;html=1;entryX=0.5;entryY=1;entryDx=0;entryDy=0;" parent="1" source="cOA8pEIspgwsPlg7-5SU-44" target="cOA8pEIspgwsPlg7-5SU-46" edge="1">
          <mxGeometry relative="1" as="geometry">
            <Array as="points">
              <mxPoint x="280" y="-40" />
              <mxPoint x="150" y="-40" />
            </Array>
          </mxGeometry>
        </mxCell>
        <mxCell id="cOA8pEIspgwsPlg7-5SU-44" value="AV/EDR" style="rounded=1;whiteSpace=wrap;html=1;fillColor=#e1d5e7;strokeColor=#9673a6;" parent="1" vertex="1">
          <mxGeometry x="220" y="-20" width="120" height="60" as="geometry" />
        </mxCell>
        <mxCell id="gjqITfuBYD3FeMsKbYDt-8" style="edgeStyle=orthogonalEdgeStyle;rounded=0;orthogonalLoop=1;jettySize=auto;html=1;" edge="1" parent="1" source="cOA8pEIspgwsPlg7-5SU-46">
          <mxGeometry relative="1" as="geometry">
            <mxPoint x="210" y="-180" as="targetPoint" />
          </mxGeometry>
        </mxCell>
        <mxCell id="cOA8pEIspgwsPlg7-5SU-46" value="Prevention" style="rounded=1;whiteSpace=wrap;html=1;" parent="1" vertex="1">
          <mxGeometry x="90" y="-100" width="120" height="30" as="geometry" />
        </mxCell>
        <mxCell id="gjqITfuBYD3FeMsKbYDt-7" style="edgeStyle=orthogonalEdgeStyle;rounded=0;orthogonalLoop=1;jettySize=auto;html=1;" edge="1" parent="1" source="cOA8pEIspgwsPlg7-5SU-48" target="gjqITfuBYD3FeMsKbYDt-6">
          <mxGeometry relative="1" as="geometry" />
        </mxCell>
        <mxCell id="cOA8pEIspgwsPlg7-5SU-48" value="Detection" style="rounded=1;whiteSpace=wrap;html=1;" parent="1" vertex="1">
          <mxGeometry x="220" y="-100" width="120" height="30" as="geometry" />
        </mxCell>
        <mxCell id="gjqITfuBYD3FeMsKbYDt-2" value="" style="edgeStyle=orthogonalEdgeStyle;rounded=0;orthogonalLoop=1;jettySize=auto;html=1;" edge="1" parent="1" source="cOA8pEIspgwsPlg7-5SU-49" target="gjqITfuBYD3FeMsKbYDt-1">
          <mxGeometry relative="1" as="geometry" />
        </mxCell>
        <mxCell id="gjqITfuBYD3FeMsKbYDt-3" value="" style="edgeStyle=orthogonalEdgeStyle;rounded=0;orthogonalLoop=1;jettySize=auto;html=1;" edge="1" parent="1" source="cOA8pEIspgwsPlg7-5SU-49" target="gjqITfuBYD3FeMsKbYDt-1">
          <mxGeometry relative="1" as="geometry" />
        </mxCell>
        <mxCell id="gjqITfuBYD3FeMsKbYDt-5" style="edgeStyle=orthogonalEdgeStyle;rounded=0;orthogonalLoop=1;jettySize=auto;html=1;entryX=0.5;entryY=1;entryDx=0;entryDy=0;" edge="1" parent="1" source="cOA8pEIspgwsPlg7-5SU-49" target="gjqITfuBYD3FeMsKbYDt-4">
          <mxGeometry relative="1" as="geometry">
            <Array as="points">
              <mxPoint x="410" y="-140" />
              <mxPoint x="540" y="-140" />
            </Array>
          </mxGeometry>
        </mxCell>
        <mxCell id="cOA8pEIspgwsPlg7-5SU-49" value="Tampering" style="rounded=1;whiteSpace=wrap;html=1;" parent="1" vertex="1">
          <mxGeometry x="350" y="-100" width="120" height="30" as="geometry" />
        </mxCell>
        <mxCell id="gjqITfuBYD3FeMsKbYDt-24" style="edgeStyle=orthogonalEdgeStyle;rounded=0;orthogonalLoop=1;jettySize=auto;html=1;entryX=0.5;entryY=1;entryDx=0;entryDy=0;" edge="1" parent="1" source="cOA8pEIspgwsPlg7-5SU-53" target="gjqITfuBYD3FeMsKbYDt-19">
          <mxGeometry relative="1" as="geometry" />
        </mxCell>
        <mxCell id="cOA8pEIspgwsPlg7-5SU-53" value="External" style="rounded=1;whiteSpace=wrap;html=1;fillColor=#e1d5e7;strokeColor=#9673a6;" parent="1" vertex="1">
          <mxGeometry x="1390" y="195" width="120" height="60" as="geometry" />
        </mxCell>
        <mxCell id="cOA8pEIspgwsPlg7-5SU-57" value="DNS Records" style="rounded=1;whiteSpace=wrap;html=1;" parent="1" vertex="1">
          <mxGeometry x="400" y="410" width="120" height="30" as="geometry" />
        </mxCell>
        <mxCell id="cOA8pEIspgwsPlg7-5SU-59" value="Files Infiltration" style="rounded=1;whiteSpace=wrap;html=1;" parent="1" vertex="1">
          <mxGeometry x="530" y="410" width="120" height="30" as="geometry" />
        </mxCell>
        <mxCell id="cOA8pEIspgwsPlg7-5SU-60" value="Content" style="rounded=1;whiteSpace=wrap;html=1;" parent="1" vertex="1">
          <mxGeometry x="670" y="410" width="120" height="30" as="geometry" />
        </mxCell>
        <mxCell id="cOA8pEIspgwsPlg7-5SU-61" value="Open Relay" style="rounded=1;whiteSpace=wrap;html=1;" parent="1" vertex="1">
          <mxGeometry x="810" y="410" width="120" height="30" as="geometry" />
        </mxCell>
        <mxCell id="buJ9CacG_YuytnTNxGgd-20" style="edgeStyle=orthogonalEdgeStyle;rounded=0;orthogonalLoop=1;jettySize=auto;html=1;" parent="1" source="buJ9CacG_YuytnTNxGgd-2" target="buJ9CacG_YuytnTNxGgd-19" edge="1">
          <mxGeometry relative="1" as="geometry" />
        </mxCell>
        <mxCell id="buJ9CacG_YuytnTNxGgd-2" value="PAM" style="rounded=1;whiteSpace=wrap;html=1;fillColor=#e1d5e7;strokeColor=#9673a6;" parent="1" vertex="1">
          <mxGeometry x="-250" y="650" width="120" height="60" as="geometry" />
        </mxCell>
        <mxCell id="buJ9CacG_YuytnTNxGgd-22" style="edgeStyle=orthogonalEdgeStyle;rounded=0;orthogonalLoop=1;jettySize=auto;html=1;entryX=0.5;entryY=1;entryDx=0;entryDy=0;" parent="1" source="buJ9CacG_YuytnTNxGgd-4" target="buJ9CacG_YuytnTNxGgd-21" edge="1">
          <mxGeometry relative="1" as="geometry" />
        </mxCell>
        <mxCell id="gjqITfuBYD3FeMsKbYDt-10" style="edgeStyle=orthogonalEdgeStyle;rounded=0;orthogonalLoop=1;jettySize=auto;html=1;" edge="1" parent="1" source="buJ9CacG_YuytnTNxGgd-4" target="gjqITfuBYD3FeMsKbYDt-9">
          <mxGeometry relative="1" as="geometry">
            <Array as="points">
              <mxPoint x="-160" y="-40" />
              <mxPoint x="-290" y="-40" />
            </Array>
          </mxGeometry>
        </mxCell>
        <mxCell id="buJ9CacG_YuytnTNxGgd-4" value="EPM" style="rounded=1;whiteSpace=wrap;html=1;fillColor=#e1d5e7;strokeColor=#9673a6;" parent="1" vertex="1">
          <mxGeometry x="-220" y="-20" width="120" height="60" as="geometry" />
        </mxCell>
        <mxCell id="gjqITfuBYD3FeMsKbYDt-14" style="edgeStyle=orthogonalEdgeStyle;rounded=0;orthogonalLoop=1;jettySize=auto;html=1;entryX=0.5;entryY=1;entryDx=0;entryDy=0;" edge="1" parent="1" source="buJ9CacG_YuytnTNxGgd-5" target="gjqITfuBYD3FeMsKbYDt-11">
          <mxGeometry relative="1" as="geometry" />
        </mxCell>
        <mxCell id="gjqITfuBYD3FeMsKbYDt-15" style="edgeStyle=orthogonalEdgeStyle;rounded=0;orthogonalLoop=1;jettySize=auto;html=1;entryX=0.5;entryY=1;entryDx=0;entryDy=0;" edge="1" parent="1" source="buJ9CacG_YuytnTNxGgd-5" target="gjqITfuBYD3FeMsKbYDt-13">
          <mxGeometry relative="1" as="geometry">
            <Array as="points">
              <mxPoint x="800" y="-40" />
              <mxPoint x="670" y="-40" />
            </Array>
          </mxGeometry>
        </mxCell>
        <mxCell id="gjqITfuBYD3FeMsKbYDt-16" style="edgeStyle=orthogonalEdgeStyle;rounded=0;orthogonalLoop=1;jettySize=auto;html=1;entryX=0.5;entryY=1;entryDx=0;entryDy=0;" edge="1" parent="1" source="buJ9CacG_YuytnTNxGgd-5" target="gjqITfuBYD3FeMsKbYDt-12">
          <mxGeometry relative="1" as="geometry">
            <Array as="points">
              <mxPoint x="800" y="-40" />
              <mxPoint x="930" y="-40" />
            </Array>
          </mxGeometry>
        </mxCell>
        <mxCell id="buJ9CacG_YuytnTNxGgd-5" value="Application Control listing" style="rounded=1;whiteSpace=wrap;html=1;fillColor=#e1d5e7;strokeColor=#9673a6;" parent="1" vertex="1">
          <mxGeometry x="740" y="-20" width="120" height="60" as="geometry" />
        </mxCell>
        <mxCell id="buJ9CacG_YuytnTNxGgd-19" value="?" style="rounded=1;whiteSpace=wrap;html=1;" parent="1" vertex="1">
          <mxGeometry x="-250" y="770" width="120" height="30" as="geometry" />
        </mxCell>
        <mxCell id="buJ9CacG_YuytnTNxGgd-21" value="Run as admin check" style="rounded=1;whiteSpace=wrap;html=1;" parent="1" vertex="1">
          <mxGeometry x="-220" y="-100" width="120" height="30" as="geometry" />
        </mxCell>
        <mxCell id="buJ9CacG_YuytnTNxGgd-26" value="Cookies" style="rounded=1;whiteSpace=wrap;html=1;" parent="1" vertex="1">
          <mxGeometry x="-550" y="700" width="120" height="30" as="geometry" />
        </mxCell>
        <mxCell id="buJ9CacG_YuytnTNxGgd-30" style="edgeStyle=orthogonalEdgeStyle;rounded=0;orthogonalLoop=1;jettySize=auto;html=1;entryX=0.5;entryY=0;entryDx=0;entryDy=0;" parent="1" source="buJ9CacG_YuytnTNxGgd-27" target="buJ9CacG_YuytnTNxGgd-26" edge="1">
          <mxGeometry relative="1" as="geometry" />
        </mxCell>
        <mxCell id="buJ9CacG_YuytnTNxGgd-27" value="Browser Isolation" style="rounded=1;whiteSpace=wrap;html=1;" parent="1" vertex="1">
          <mxGeometry x="-550" y="600" width="120" height="60" as="geometry" />
        </mxCell>
        <mxCell id="buJ9CacG_YuytnTNxGgd-31" value="SMB" style="rounded=1;whiteSpace=wrap;html=1;" parent="1" vertex="1">
          <mxGeometry x="-10" y="770" width="120" height="30" as="geometry" />
        </mxCell>
        <mxCell id="gjqITfuBYD3FeMsKbYDt-1" value="Drivers" style="rounded=1;whiteSpace=wrap;html=1;" vertex="1" parent="1">
          <mxGeometry x="350" y="-210" width="120" height="30" as="geometry" />
        </mxCell>
        <mxCell id="gjqITfuBYD3FeMsKbYDt-4" value="Kill / Suspend" style="rounded=1;whiteSpace=wrap;html=1;" vertex="1" parent="1">
          <mxGeometry x="480" y="-210" width="120" height="30" as="geometry" />
        </mxCell>
        <mxCell id="gjqITfuBYD3FeMsKbYDt-6" value="Execution" style="rounded=1;whiteSpace=wrap;html=1;" vertex="1" parent="1">
          <mxGeometry x="150" y="-210" width="120" height="30" as="geometry" />
        </mxCell>
        <mxCell id="gjqITfuBYD3FeMsKbYDt-9" value="Tampering" style="rounded=1;whiteSpace=wrap;html=1;" vertex="1" parent="1">
          <mxGeometry x="-350" y="-100" width="120" height="30" as="geometry" />
        </mxCell>
        <mxCell id="gjqITfuBYD3FeMsKbYDt-11" value="Lolbbas" style="rounded=1;whiteSpace=wrap;html=1;" vertex="1" parent="1">
          <mxGeometry x="740" y="-90" width="120" height="30" as="geometry" />
        </mxCell>
        <mxCell id="gjqITfuBYD3FeMsKbYDt-12" value="Side-Loading" style="rounded=1;whiteSpace=wrap;html=1;" vertex="1" parent="1">
          <mxGeometry x="870" y="-90" width="120" height="30" as="geometry" />
        </mxCell>
        <mxCell id="gjqITfuBYD3FeMsKbYDt-13" value="Extensions" style="rounded=1;whiteSpace=wrap;html=1;" vertex="1" parent="1">
          <mxGeometry x="610" y="-90" width="120" height="30" as="geometry" />
        </mxCell>
        <mxCell id="gjqITfuBYD3FeMsKbYDt-37" style="edgeStyle=orthogonalEdgeStyle;rounded=0;orthogonalLoop=1;jettySize=auto;html=1;entryX=0.5;entryY=0;entryDx=0;entryDy=0;" edge="1" parent="1" source="gjqITfuBYD3FeMsKbYDt-18" target="gjqITfuBYD3FeMsKbYDt-20">
          <mxGeometry relative="1" as="geometry" />
        </mxCell>
        <mxCell id="gjqITfuBYD3FeMsKbYDt-38" style="edgeStyle=orthogonalEdgeStyle;rounded=0;orthogonalLoop=1;jettySize=auto;html=1;entryX=0.5;entryY=0;entryDx=0;entryDy=0;" edge="1" parent="1" source="gjqITfuBYD3FeMsKbYDt-18" target="gjqITfuBYD3FeMsKbYDt-21">
          <mxGeometry relative="1" as="geometry">
            <Array as="points">
              <mxPoint x="1450" y="660" />
              <mxPoint x="1320" y="660" />
            </Array>
          </mxGeometry>
        </mxCell>
        <mxCell id="gjqITfuBYD3FeMsKbYDt-39" style="edgeStyle=orthogonalEdgeStyle;rounded=0;orthogonalLoop=1;jettySize=auto;html=1;entryX=0.5;entryY=0;entryDx=0;entryDy=0;" edge="1" parent="1" source="gjqITfuBYD3FeMsKbYDt-18" target="gjqITfuBYD3FeMsKbYDt-22">
          <mxGeometry relative="1" as="geometry">
            <Array as="points">
              <mxPoint x="1450" y="660" />
              <mxPoint x="1580" y="660" />
            </Array>
          </mxGeometry>
        </mxCell>
        <mxCell id="gjqITfuBYD3FeMsKbYDt-18" value="Low Hanging Fruit" style="rounded=1;whiteSpace=wrap;html=1;" vertex="1" parent="1">
          <mxGeometry x="1390" y="600" width="120" height="30" as="geometry" />
        </mxCell>
        <mxCell id="gjqITfuBYD3FeMsKbYDt-41" value="" style="edgeStyle=orthogonalEdgeStyle;rounded=0;orthogonalLoop=1;jettySize=auto;html=1;" edge="1" parent="1" source="gjqITfuBYD3FeMsKbYDt-19" target="gjqITfuBYD3FeMsKbYDt-40">
          <mxGeometry relative="1" as="geometry" />
        </mxCell>
        <mxCell id="gjqITfuBYD3FeMsKbYDt-19" value="Low Hanging Fruit" style="rounded=1;whiteSpace=wrap;html=1;" vertex="1" parent="1">
          <mxGeometry x="1390" y="90" width="120" height="30" as="geometry" />
        </mxCell>
        <mxCell id="gjqITfuBYD3FeMsKbYDt-36" value="" style="edgeStyle=orthogonalEdgeStyle;rounded=0;orthogonalLoop=1;jettySize=auto;html=1;" edge="1" parent="1" source="gjqITfuBYD3FeMsKbYDt-20" target="gjqITfuBYD3FeMsKbYDt-35">
          <mxGeometry relative="1" as="geometry" />
        </mxCell>
        <mxCell id="gjqITfuBYD3FeMsKbYDt-20" value="ADCS" style="rounded=1;whiteSpace=wrap;html=1;" vertex="1" parent="1">
          <mxGeometry x="1390" y="690" width="120" height="30" as="geometry" />
        </mxCell>
        <mxCell id="gjqITfuBYD3FeMsKbYDt-21" value="CVE&#39;s" style="rounded=1;whiteSpace=wrap;html=1;" vertex="1" parent="1">
          <mxGeometry x="1260" y="690" width="120" height="30" as="geometry" />
        </mxCell>
        <mxCell id="gjqITfuBYD3FeMsKbYDt-34" value="" style="edgeStyle=orthogonalEdgeStyle;rounded=0;orthogonalLoop=1;jettySize=auto;html=1;" edge="1" parent="1" source="gjqITfuBYD3FeMsKbYDt-22" target="gjqITfuBYD3FeMsKbYDt-33">
          <mxGeometry relative="1" as="geometry" />
        </mxCell>
        <mxCell id="gjqITfuBYD3FeMsKbYDt-22" value="Misconfigurations" style="rounded=1;whiteSpace=wrap;html=1;" vertex="1" parent="1">
          <mxGeometry x="1520" y="690" width="120" height="30" as="geometry" />
        </mxCell>
        <mxCell id="gjqITfuBYD3FeMsKbYDt-30" value="" style="edgeStyle=orthogonalEdgeStyle;rounded=0;orthogonalLoop=1;jettySize=auto;html=1;" edge="1" parent="1" source="gjqITfuBYD3FeMsKbYDt-27" target="gjqITfuBYD3FeMsKbYDt-29">
          <mxGeometry relative="1" as="geometry" />
        </mxCell>
        <mxCell id="gjqITfuBYD3FeMsKbYDt-32" style="edgeStyle=orthogonalEdgeStyle;rounded=0;orthogonalLoop=1;jettySize=auto;html=1;entryX=0.5;entryY=0;entryDx=0;entryDy=0;" edge="1" parent="1" source="gjqITfuBYD3FeMsKbYDt-27" target="gjqITfuBYD3FeMsKbYDt-31">
          <mxGeometry relative="1" as="geometry">
            <Array as="points">
              <mxPoint x="1090" y="660" />
              <mxPoint x="960" y="660" />
            </Array>
          </mxGeometry>
        </mxCell>
        <mxCell id="gjqITfuBYD3FeMsKbYDt-27" value="Shares" style="rounded=1;whiteSpace=wrap;html=1;" vertex="1" parent="1">
          <mxGeometry x="1030" y="600" width="120" height="30" as="geometry" />
        </mxCell>
        <mxCell id="gjqITfuBYD3FeMsKbYDt-29" value="Sensitive Data" style="rounded=1;whiteSpace=wrap;html=1;" vertex="1" parent="1">
          <mxGeometry x="1030" y="690" width="120" height="30" as="geometry" />
        </mxCell>
        <mxCell id="gjqITfuBYD3FeMsKbYDt-31" value="Read/Write" style="rounded=1;whiteSpace=wrap;html=1;" vertex="1" parent="1">
          <mxGeometry x="900" y="690" width="120" height="30" as="geometry" />
        </mxCell>
        <mxCell id="gjqITfuBYD3FeMsKbYDt-33" value="ACL" style="rounded=1;whiteSpace=wrap;html=1;" vertex="1" parent="1">
          <mxGeometry x="1520" y="800" width="120" height="30" as="geometry" />
        </mxCell>
        <mxCell id="gjqITfuBYD3FeMsKbYDt-35" value="ESC1-12" style="rounded=1;whiteSpace=wrap;html=1;" vertex="1" parent="1">
          <mxGeometry x="1390" y="800" width="120" height="30" as="geometry" />
        </mxCell>
        <mxCell id="gjqITfuBYD3FeMsKbYDt-40" value="Vulnerabilities Scan" style="rounded=1;whiteSpace=wrap;html=1;" vertex="1" parent="1">
          <mxGeometry x="1390" y="-20" width="120" height="30" as="geometry" />
        </mxCell>
        <mxCell id="gjqITfuBYD3FeMsKbYDt-42" value="OSNIT" style="rounded=1;whiteSpace=wrap;html=1;" vertex="1" parent="1">
          <mxGeometry x="1520" y="-20" width="120" height="30" as="geometry" />
        </mxCell>
      </root>
    </mxGraphModel>
  </diagram>
</mxfile>
